<svg width="35" height="35" viewBox="0 0 35 35" fill="none" xmlns="http://www.w3.org/2000/svg">
<path d="M17.5405 0.705078C8.24108 0.705078 0.703125 8.24303 0.703125 17.5424C0.703125 26.8418 8.24108 34.3798 17.5405 34.3798C26.8399 34.3798 34.3778 26.8418 34.3778 17.5424C34.3675 8.24692 26.836 0.71544 17.5405 0.705078ZM24.9321 14.5739L15.8658 23.6401C15.6236 23.8823 15.2933 24.0196 14.9501 24.0196C14.6069 24.0196 14.2766 23.8823 14.0331 23.6401L10.1476 19.7546C9.64246 19.2482 9.64246 18.427 10.1476 17.9219C10.654 17.4155 11.4751 17.4155 11.9803 17.9219L14.9501 20.8918L23.0994 12.7412C23.6058 12.2348 24.427 12.2348 24.9321 12.7412C25.4385 13.2463 25.4385 14.0675 24.9321 14.5739Z" fill="#4260CD"/>
</svg>
