<svg width="41" height="41" viewBox="0 0 41 41" fill="none" xmlns="http://www.w3.org/2000/svg">
<rect x="1.5" y="1.31543" width="38" height="38" rx="11" stroke="url(#paint0_linear_13_17609)" stroke-width="2"/>
<path d="M26.2985 12.8867H14.125C13.5419 12.8867 13.0703 13.3471 13.0703 13.9163V26.1401C13.0703 26.7093 13.5419 27.1724 14.125 27.1724H26.2985C26.8817 27.1724 27.356 26.7093 27.356 26.1429V13.9163C27.356 13.3471 26.8817 12.8867 26.2985 12.8867ZM17.3086 25.0603H15.1881V18.2411H17.3086V25.0603ZM16.2483 17.3119C15.5675 17.3119 15.0179 16.7623 15.0179 16.0843C15.0179 15.4062 15.5675 14.8566 16.2483 14.8566C16.9263 14.8566 17.476 15.4062 17.476 16.0843C17.476 16.7595 16.9263 17.3119 16.2483 17.3119ZM25.2439 25.0603H23.1261V21.7455C23.1261 20.9559 23.1122 19.9375 22.024 19.9375C20.9219 19.9375 20.7545 20.7997 20.7545 21.6897V25.0603H18.6395V18.2411H20.6708V19.173H20.6987C20.9805 18.6373 21.6724 18.0709 22.702 18.0709C24.8477 18.0709 25.2439 19.4827 25.2439 21.3186V25.0603Z" fill="white"/>
<defs>
<linearGradient id="paint0_linear_13_17609" x1="20.5" y1="0.31543" x2="20.5" y2="40.3154" gradientUnits="userSpaceOnUse">
<stop stop-color="#4260CD"/>
<stop offset="1" stop-color="#B079FD"/>
</linearGradient>
</defs>
</svg>
