<svg width="23" height="31" viewBox="0 0 23 31" fill="none" xmlns="http://www.w3.org/2000/svg">
<path d="M22.2703 14.348C22.1964 14.032 21.9685 13.7742 21.6641 13.6615L14.6689 11.0375L16.4484 2.13313C16.5313 1.70831 16.3228 1.2796 15.9368 1.08274C15.5522 0.885868 15.082 0.967464 14.7867 1.28349L1.18732 15.8543C0.961957 16.09 0.871295 16.4241 0.94512 16.7415C1.01765 17.0588 1.2456 17.3191 1.55126 17.4331L8.54913 20.0571L6.77343 28.9511C6.69054 29.376 6.89907 29.8047 7.28503 30.0015C7.6697 30.1984 8.13985 30.1168 8.43515 29.8008L22.0345 15.23C22.2547 14.9943 22.3441 14.6627 22.2703 14.348ZM9.34825 25.9839L10.6201 19.6245C10.7147 19.1583 10.4569 18.6933 10.0127 18.5236L3.59765 16.1146L13.8723 5.10557L12.6017 11.4662C12.5072 11.9312 12.7649 12.3974 13.2092 12.5658L19.6203 14.9697L9.34825 25.9839Z" fill="#4260CD"/>
</svg>
