<svg width="41" height="41" viewBox="0 0 41 41" fill="none" xmlns="http://www.w3.org/2000/svg">
<rect x="1.5" y="1.31543" width="38" height="38" rx="11" stroke="url(#paint0_linear_4008_2512)" stroke-width="2"/>
<path d="M28.8217 16.6186C28.8217 16.6186 28.655 15.4422 28.1418 14.9257C27.492 14.2459 26.7656 14.2426 26.4323 14.2026C24.0463 14.0293 20.464 14.0293 20.464 14.0293H20.4573C20.4573 14.0293 16.875 14.0293 14.489 14.2026C14.1557 14.2426 13.4293 14.2459 12.7795 14.9257C12.2663 15.4422 12.103 16.6186 12.103 16.6186C12.103 16.6186 11.9297 18.0015 11.9297 19.3811V20.6741C11.9297 22.0537 12.0996 23.4367 12.0996 23.4367C12.0996 23.4367 12.2663 24.613 12.7761 25.1295C13.4259 25.8094 14.279 25.786 14.6589 25.8593C16.0252 25.9893 20.4607 26.0293 20.4607 26.0293C20.4607 26.0293 24.0463 26.0226 26.4323 25.8527C26.7656 25.8127 27.492 25.8094 28.1418 25.1295C28.655 24.613 28.8217 23.4367 28.8217 23.4367C28.8217 23.4367 28.9916 22.0571 28.9916 20.6741V19.3811C28.9916 18.0015 28.8217 16.6186 28.8217 16.6186ZM18.6978 22.2437V17.4483L23.3065 19.8543L18.6978 22.2437Z" fill="white"/>
<defs>
<linearGradient id="paint0_linear_4008_2512" x1="20.5" y1="0.31543" x2="20.5" y2="40.3154" gradientUnits="userSpaceOnUse">
<stop stop-color="#4260CD"/>
<stop offset="1" stop-color="#B079FD"/>
</linearGradient>
</defs>
</svg>
